# xmcd
#
# Track frame offsets: 
#        150
#        11258
#        21752
#        38253
#        58942
#        71785
#        93728
#        111162
#        129449
#        145177
#        166989
#        184453
#        197483
#        212165
#        228078
#        244288
#        260857
#        279989
#        305079
#        326378
#
# Disc length: 4566 seconds
#
# Revision: 2
# Processed by: cddbd v1.5.2PL0 Copyright (c) Steve Scherf et al.
# Submitted via: ExactAudioCopyFreeDBPlugin 1.0
#
DISCID=2211d414
DTITLE=Веселые Ребята - Избранное 65-90
DYEAR=2003
DGENRE=Pop
TTITLE0=Люди Встречаются
TTITLE1=Алешкина Любовь
TTITLE2=Ни Минуты Покоя
TTITLE3=Когда Молчим Вдвоем
TTITLE4=Уходило Лето
TTITLE5=Качели
TTITLE6=Как Прекрасен Этот Мир
TTITLE7=Я К Тебе Не Подойду 
TTITLE8=Школьная Пора
TTITLE9=Вот И Все
TTITLE10=Бродячие Артисты
TTITLE11=Четраново
TTITLE12=Автомобили
TTITLE13=Баня
TTITLE14=Хочу Все Знать
TTITLE15=Бологое
TTITLE16=Не Волнуйтесь, Тетя
TTITLE17=Пустыня
TTITLE18=Розовые Розы
TTITLE19=Безнадега
EXTD=
EXTT0=
EXTT1=
EXTT2=
EXTT3=
EXTT4=
EXTT5=
EXTT6=
EXTT7=
EXTT8=
EXTT9=
EXTT10=
EXTT11=
EXTT12=
EXTT13=
EXTT14=
EXTT15=
EXTT16=
EXTT17=
EXTT18=
EXTT19=
PLAYORDER=
